<?xml version="1.0" standalone="no"?><!DOCTYPE svg PUBLIC "-//W3C//DTD SVG 1.1//EN" "http://www.w3.org/Graphics/SVG/1.1/DTD/svg11.dtd"><svg t="1754137842143" class="icon" viewBox="0 0 1024 1024" version="1.1" xmlns="http://www.w3.org/2000/svg" p-id="5081" xmlns:xlink="http://www.w3.org/1999/xlink" width="16" height="16"><path d="M665.5961 477.8632a17.0599 17.0599 0 0 0 17.0659-17.0659v-136.5332a17.0599 17.0599 0 0 0-17.0659-17.0659h-102.3994a17.0599 17.0599 0 0 0-17.0659 17.0659V460.7973a17.0599 17.0599 0 0 0 17.0659 17.0659h102.3994z m-85.3335-136.5312h68.2656v102.3994h-68.2656v-102.3994z" p-id="5082" fill="#1296db"></path><path d="M215.328738 322.968108a17.0699 17.0699 0 0 0 18.601891-3.701979l278.118371-278.10237 278.014371 278.10037a17.0099 17.0099 0 0 0 18.601891 3.703979 17.0939 17.0939 0 0 0 10.529938-15.769908v-255.9985a17.0599 17.0599 0 0 0-17.0659-17.0659h-170.665a17.0599 17.0599 0 0 0-17.0659 17.0659 17.0599 17.0599 0 0 0 17.0659 17.0659h153.5991v197.716842L524.164929 4.999971c-6.399963-6.399963-17.833896-6.399963-24.233858 0L238.9326 265.998441V68.2656h85.3335a17.0599 17.0599 0 0 0 17.0659-17.0659v-17.0659h34.1338V51.1997c0 9.419945 7.627955 17.0659 17.0659 17.0659S409.5976 60.619645 409.5976 51.1997V17.0659A17.0599 17.0599 0 0 0 392.5317 0h-68.2656a17.0599 17.0599 0 0 0-17.0659 17.0659v17.0659h-85.3335a17.0599 17.0599 0 0 0-17.0659 17.0659v255.9985a17.0679 17.0679 0 0 0 10.527938 15.771908z" p-id="5083" fill="#1296db"></path><path d="M255.9985 332.79805a17.0599 17.0599 0 0 0-17.0659 17.0659V563.1967a17.0599 17.0599 0 0 0 17.0659 17.0659h511.997a17.0599 17.0599 0 0 0 17.0659-17.0659V349.86395A17.0599 17.0599 0 0 0 767.9955 332.79805a17.0599 17.0599 0 0 0-17.0659 17.0659v196.26485H511.997V324.2641a17.0599 17.0599 0 0 0-17.0659-17.0659H358.3979a17.0599 17.0599 0 0 0-17.0659 17.0659v221.8647h-68.2656v-196.26485A17.0639 17.0639 0 0 0 255.9985 332.79805z m119.4653 8.53395h102.3994v85.3335H460.7973a17.0599 17.0599 0 0 0-17.0659 17.0659 17.0599 17.0599 0 0 0 17.0659 17.0659h17.0659v85.3335h-102.3994v-204.7988zM955.7284 307.1982c-37.649779 0-68.2656 30.617821-68.2656 68.2656v135.115208a17.0599 17.0599 0 0 0 17.0659 17.0659 17.0599 17.0599 0 0 0 17.0659-17.0659v-135.115208c0-18.82389 15.30791-34.1338 34.1338-34.1338s34.1338 15.30791 34.1338 34.1338v255.9985c0 47.273723-27.015842 71.371582-29.131829 73.267571l-153.5991 153.5991a17.0459 17.0459 0 0 0 0 24.131858 17.0199 17.0199 0 0 0 12.065929 4.999971 17.0179 17.0179 0 0 0 12.065929-4.999971l152.541107-152.627105c1.63799-1.381992 40.191765-34.645797 40.191764-98.371424v-255.9985c-0.002-37.647779-30.619821-68.2656-68.2676-68.2656z" p-id="5084" fill="#1296db"></path><path d="M904.5287 921.5946H682.662v-136.5332c0-46.659727 27.187841-71.475581 29.131829-73.267571l119.4653-119.4653c6.77596-6.77596 15.239911-10.699937 23.807861-11.041935 8.60195-0.391998 16.161905 2.763984 22.391869 8.975947 5.905965 5.905965 9.011947 13.225923 9.011947 21.195876 0 8.993947-3.925977 17.867895-11.075935 25.001854L790.063371 721.795771a17.0459 17.0459 0 0 0 0 24.131858 17.0459 17.0459 0 0 0 24.131858 0l85.3155-85.3155c13.60192-13.567921 21.093876-31.009818 21.093877-49.135712 0.018-16.9819-6.74196-33.075806-19.011889-45.345734-12.969924-12.953924-30.121824-19.643885-47.923719-18.961889-17.169899 0.715996-33.689803 8.173952-46.539727 21.025877l-118.579305 118.647305c-1.63799 1.415992-40.021765 35.413792-40.021766 98.217424V921.5946h-17.0659a17.0599 17.0599 0 0 0-17.0659 17.0659v68.2656c0 9.419945 7.627955 17.0659 17.0659 17.0659s17.0659-7.645955 17.0659-17.0659v-51.1997h238.9326v51.1997a17.0599 17.0599 0 0 0 17.0659 17.0659 17.0599 17.0599 0 0 0 17.0659-17.0659v-68.2656a17.0599 17.0599 0 0 0-17.0639-17.0659zM392.5317 921.5946h-17.0659v-136.5332c0-62.805632-38.381775-96.801433-39.133771-97.399429L216.882729 568.196671c-12.833925-12.851925-29.371828-20.309881-46.523727-21.025877-18.243893-0.681996-34.985795 5.989965-47.957719 18.961889-12.969924 12.953924-19.677885 29.985824-18.943889 47.923719 0.699996 17.169899 8.157952 33.705803 21.009877 46.539727l85.3335 85.3335a17.0459 17.0459 0 0 0 24.131858 0 17.0499 17.0499 0 0 0 0-24.131858L148.599129 636.464271c-6.75796-6.77596-10.699937-15.223911-11.041935-23.807861-0.357998-8.429951 2.763984-16.161905 8.977947-22.391869 6.229963-6.229963 14.301916-9.369945 22.407869-8.975947 8.58395 0.341998 17.0159 4.265975 23.789861 11.041935l120.267295 120.217296c1.143993 1.041994 28.329834 25.855849 28.329834 72.515575V921.5946H119.4653a17.0599 17.0599 0 0 0-17.0659 17.0659v68.2656c0 9.419945 7.627955 17.0659 17.0659 17.0659s17.0659-7.645955 17.0659-17.0659v-51.1997h238.9326v51.1997c0 9.419945 7.627955 17.0659 17.0659 17.0659s17.0659-7.645955 17.0659-17.0659v-68.2656a17.0599 17.0599 0 0 0-17.0639-17.0659z" p-id="5085" fill="#1296db"></path><path d="M204.7988 887.4608a17.0179 17.0179 0 0 0 12.065929-4.999971 17.0459 17.0459 0 0 0 0-24.131858l-154.571094-154.487095c-1.143993-1.005994-28.159835-25.105853-28.159835-72.379576v-255.9985c0-18.82389 15.30791-34.1338 34.1338-34.1338 18.82389 0 34.1338 15.30791 34.1338 34.1338v135.115208c0 9.419945 7.627955 17.0659 17.0659 17.0659s17.0659-7.645955 17.0659-17.0659v-135.115208c0-37.649779-30.617821-68.2656-68.2656-68.2656C30.617821 307.1982 0 337.816021 0 375.4638v255.9985c0 63.725627 38.553774 96.989432 39.133771 97.399429l153.5991 153.5991a17.0179 17.0179 0 0 0 12.065929 4.999971z" p-id="5086" fill="#1296db"></path></svg>