<?xml version="1.0" standalone="no"?><!DOCTYPE svg PUBLIC "-//W3C//DTD SVG 1.1//EN" "http://www.w3.org/Graphics/SVG/1.1/DTD/svg11.dtd"><svg t="1754042954096" class="icon" viewBox="0 0 1092 1024" version="1.1" xmlns="http://www.w3.org/2000/svg" p-id="5198" width="17.0625" height="16" xmlns:xlink="http://www.w3.org/1999/xlink"><path d="M1031.953067 0l12.868266 0.017067C1071.035733 0.0512 1092.266667 22.528 1092.266667 50.2272v753.186133c0 27.716267-3.754667 39.867733-29.952 39.8848H576.682667v120.4736h151.7568V1024H364.219733v-60.245333h151.7568l-6.434133-120.456534H34.628267C8.3968 843.298133 0 831.1296 0 803.396267V50.210133C0 22.4768 21.265067 0 47.496533 0h984.456534zM546.133333 752.9472c-16.759467 0-30.344533 13.482667-30.344533 30.1056 0 16.64 13.585067 30.122667 30.344533 30.122667s30.344533-13.482667 30.344534-30.122667c0-16.622933-13.585067-30.1056-30.344534-30.1056zM1031.953067 60.228267H60.689067v662.596266h971.264V60.228267zM728.439467 451.771733v210.824534h-60.706134V451.754667h60.706134z m121.412266 90.350934v120.4736h-60.706133v-120.490667h60.706133z m121.3952-150.596267v271.069867h-60.706133V391.509333h60.706133z m-364.202666 150.596267v120.4736H546.304v-120.490667h60.706133zM285.269333 121.207467v189.149866l166.2976 95.9488a182.545067 182.545067 0 0 1-147.968 75.5712c-100.4544 0-182.203733-81.083733-182.203733-180.8896 0-93.013333 71.389867-170.786133 163.874133-179.780266z m685.960534 119.739733l30.3616 46.848-169.984 163.976533-145.681067-117.128533-109.2608 117.128533-30.3616-30.122666 139.6224-150.596267 145.698133 117.128533 139.605334-147.234133z m-485.9904 48.4864c0.170667 3.857067 0.3584 7.338667 0.3584 10.6496 0.187733 28.0576-6.656 56.132267-19.421867 81.271467l-120.234667-72.6528 139.298134-19.268267z m-2.048-27.6992s-148.8896 18.8928-170.530134 21.282133V120.4736s135.202133 2.389333 170.5472 141.2608z" fill="#2c2c2c" p-id="5199"></path></svg>