<?xml version="1.0" standalone="no"?><!DOCTYPE svg PUBLIC "-//W3C//DTD SVG 1.1//EN" "http://www.w3.org/Graphics/SVG/1.1/DTD/svg11.dtd"><svg t="1754188213565" class="icon" viewBox="0 0 1097 1024" version="1.1" xmlns="http://www.w3.org/2000/svg" p-id="13668" xmlns:xlink="http://www.w3.org/1999/xlink" width="17.140625" height="16"><path d="M857.892571 421.668571L554.788571 199.387429 257.316571 416.475429c-8.045714 6.070857-28.306286 4.096-34.377142-4.022858-6.070857-8.045714-4.315429-26.258286 3.803428-32.329142l314.953143-236.251429c8.045714-5.997714 16.091429-5.997714 24.210286 0l314.953143 236.251429c8.045714 6.070857 10.313143 24.283429 4.315428 32.329142-6.217143 11.264-23.259429 11.264-27.282286 9.216z" fill="#1296db" p-id="13669"></path><path d="M329.654857 685.056c-12.068571 0-20.187429-8.045714-20.187428-20.187429V329.654857c0-12.068571 8.045714-20.187429 20.187428-20.187428 12.141714 0 25.014857 8.045714 25.014857 20.187428V637.805714H452.754286c12.141714 0 20.187429 14.994286 20.187428 27.062857 0 12.141714-8.045714 20.260571-20.187428 20.260572H329.654857z m327.094857 0c-12.068571 0-20.187429-8.045714-20.187428-20.187429 0-12.141714 8.045714-25.673143 20.187428-25.673142h96.402286V329.654857c0-12.068571 12.653714-20.187429 24.722286-20.187428 12.141714 0 20.260571 8.045714 20.260571 20.187428V664.868571c0 12.068571-8.045714 20.187429-20.260571 20.187429H656.822857z" fill="#1296db" p-id="13670"></path><path d="M650.678857 685.056c-12.068571 0-20.187429-8.045714-20.187428-20.187429V497.298286H477.037714v167.497143c0 12.141714-8.045714 20.260571-20.187428 20.260571-12.068571 0-26.404571-8.045714-26.404572-20.187429V468.114286c0-12.141714 14.336-20.260571 26.404572-20.260572h203.702857c12.141714 0 20.187429 8.045714 20.187428 20.260572v196.754285c0 12.068571-17.92 20.187429-29.988571 20.187429z" fill="#1296db" p-id="13671"></path><path d="M1039.140571 791.405714H67.584c-12.068571 0-20.187429-8.045714-20.187429-20.114285V69.193143C47.396571 57.124571 55.442286 49.005714 67.584 49.005714h971.556571c12.068571 0 20.187429 8.045714 20.187429 20.187429v702.098286c0 12.068571-8.045714 20.187429-20.187429 20.187428zM124.342857 723.382857h860.891429V119.954286H124.342857v603.428571z" fill="#1296db" p-id="13672"></path><path d="M290.304 958.610286c-10.093714-4.096-23.186286-16.822857-19.163429-28.964572l78.701715-173.933714c4.096-10.093714 21.211429-12.434286 33.28-8.338286 10.093714 4.022857 25.307429 13.897143 21.284571 25.965715L325.632 949.394286c-4.022857 6.070857-15.36 17.846857-35.328 9.289143z m494.957714-14.701715l-79.36-170.130285c-4.022857-10.093714 9.508571-25.161143 18.578286-29.549715 9.069714-4.388571 31.232-0.658286 35.254857 9.508572l81.115429 173.129143c4.022857 10.093714-8.777143 24.502857-18.870857 28.525714-13.897143 4.534857-34.669714-3.437714-36.717715-11.483429z" fill="#1296db" p-id="13673"></path></svg>